<svg id="Layer_1" data-name="Layer 1" xmlns="http://www.w3.org/2000/svg" viewBox="0 0 267.88 105.42"><defs><style>.cls-1{fill:#fff;}.cls-2{fill:#231f20;}.cls-3{fill:#a7a9ac;}.cls-4{fill:#f78e1e;}.cls-5{fill:#58595b;}.cls-6{fill:#bcbec0;}</style></defs><title>our-solar-logo</title><path class="cls-1" d="M256.92,207.24l-.94-.37a50,50,0,0,0,3.38-17.72h1A50.66,50.66,0,0,1,256.92,207.24Z" transform="translate(-153.93 -135.58)"/><path class="cls-2" d="M208.27,240.62a51.07,51.07,0,0,1-21.08-4.51l.42-.93a51,51,0,0,0,64.3-20.05l.87.52a51.87,51.87,0,0,1-41.68,24.89C210.15,240.59,209.21,240.62,208.27,240.62Z" transform="translate(-153.93 -135.58)"/><path class="cls-2" d="M167.85,221.12a51.72,51.72,0,0,1-11.38-29.78,4.22,4.22,0,0,0,0-.63l1-.17a4,4,0,0,1,.05.77,50.68,50.68,0,0,0,11.15,29.17Z" transform="translate(-153.93 -135.58)"/><path class="cls-2" d="M258.51,179.53a50.63,50.63,0,0,0-13.29-26.13l.74-.7a51.62,51.62,0,0,1,13.55,26.65Z" transform="translate(-153.93 -135.58)"/><path class="cls-2" d="M235.73,145.63a50.39,50.39,0,0,0-30-7.89A52.13,52.13,0,0,0,193.08,140l-.3-1a53.23,53.23,0,0,1,12.89-2.3,51.59,51.59,0,0,1,30.6,8.05Z" transform="translate(-153.93 -135.58)"/><path class="cls-2" d="M158.5,178.12l-1-.21a52.13,52.13,0,0,1,17.66-29.28l.65.78A51.16,51.16,0,0,0,158.5,178.12Z" transform="translate(-153.93 -135.58)"/><path class="cls-1" d="M220.94,227a50.36,50.36,0,0,1-6-.49l-1-.2c-.22,0-.46-.08-.7-.14a40.7,40.7,0,0,1-12-4.73,1.61,1.61,0,0,1-.33-.23l.47-.92.16.13a1.11,1.11,0,0,0,.18.12,37.59,37.59,0,0,0,5.7,2.8,38,38,0,0,0,6,1.84l.67.13,1,.2a48.76,48.76,0,0,0,5.87.47Z" transform="translate(-153.93 -135.58)"/><path class="cls-2" d="M230.79,225.85l-.24-1a37.63,37.63,0,0,0,19.42-12l.77.67A38.55,38.55,0,0,1,230.79,225.85Z" transform="translate(-153.93 -135.58)"/><path class="cls-2" d="M215,226.47a.91.91,0,0,1-.33-.05,27.35,27.35,0,0,1-13.43-5,1.17,1.17,0,0,1-.29-.2l-.12-.09a27.92,27.92,0,0,1-10.23-14.66l1-.28a26.85,26.85,0,0,0,9.86,14.13.92.92,0,0,1,.14.11,1.11,1.11,0,0,0,.18.12,26.45,26.45,0,0,0,13.08,4.92l.2.05Z" transform="translate(-153.93 -135.58)"/><path class="cls-2" d="M191.59,190.89l-1-.29a27.92,27.92,0,0,1,16.86-18.19l.36,1A26.89,26.89,0,0,0,191.59,190.89Z" transform="translate(-153.93 -135.58)"/><path class="cls-2" d="M243.43,208.83l-.87-.54a2.42,2.42,0,0,0,.34-.86,23.78,23.78,0,0,0,1.21-4.8,2,2,0,0,0,.06-.46,2.8,2.8,0,0,1,0-.4,21.44,21.44,0,0,0,.19-4.61,27,27,0,0,0-27-25.59h-.24v-1h.24a28,28,0,0,1,28,26.54,22.85,22.85,0,0,1-.21,4.83,2.26,2.26,0,0,0,0,.27,3.11,3.11,0,0,1-.08.64,23.93,23.93,0,0,1-1.24,4.88A3.34,3.34,0,0,1,243.43,208.83Z" transform="translate(-153.93 -135.58)"/><path class="cls-3" d="M187.64,142.88a4.17,4.17,0,0,1-4.14,4.19,4,4,0,0,1-2.81-1.1,4.09,4.09,0,0,1-1.38-3.09,4.18,4.18,0,0,1,4.19-4.19,4.28,4.28,0,0,1,4.14,4.19Z" transform="translate(-153.93 -135.58)"/><path class="cls-3" d="M181.75,229.7a4.65,4.65,0,0,1-.41,2,5.47,5.47,0,1,1-6.91-7.16,5.45,5.45,0,0,1,7.32,5.16Z" transform="translate(-153.93 -135.58)"/><path class="cls-3" d="M196.47,198.51a5.71,5.71,0,0,1-3.95,5.41,5.09,5.09,0,0,1-1.74.29,5.7,5.7,0,1,1,0-11.39,5,5,0,0,1,2.76.77A5.59,5.59,0,0,1,196.47,198.51Z" transform="translate(-153.93 -135.58)"/><path class="cls-3" d="M215.09,172.16a1.2,1.2,0,0,1,0,.37,2.63,2.63,0,0,1-2.64,2.31,2.63,2.63,0,0,1-2.68-2.68,2.68,2.68,0,0,1,5.36,0Z" transform="translate(-153.93 -135.58)"/><path class="cls-3" d="M262.51,184.24a2.72,2.72,0,0,1-2.72,2.72,2.45,2.45,0,0,1-.78-.12,2.71,2.71,0,0,1-.77-4.8,3,3,0,0,1,1.55-.49A2.72,2.72,0,0,1,262.51,184.24Z" transform="translate(-153.93 -135.58)"/><path class="cls-3" d="M228.07,227.55a2.48,2.48,0,0,1-3.42.93,2.42,2.42,0,0,1-1.18-2.48,1.85,1.85,0,0,1,.29-.93,2.55,2.55,0,0,1,3.41-.94,2.38,2.38,0,0,1,1.14,1.59A2.45,2.45,0,0,1,228.07,227.55Z" transform="translate(-153.93 -135.58)"/><path class="cls-3" d="M160.8,184.32a3.44,3.44,0,0,1-3.41,3.42.75.75,0,0,1-.29,0,3.39,3.39,0,0,1-3.17-3.38,3.45,3.45,0,0,1,3.46-3.42.51.51,0,0,1,.24,0A3.39,3.39,0,0,1,160.8,184.32Z" transform="translate(-153.93 -135.58)"/><path class="cls-3" d="M244.25,149a3.24,3.24,0,0,1-1.38,2.64,3.1,3.1,0,0,1-1.79.57,3.21,3.21,0,0,1-3.21-3.21,3.47,3.47,0,0,1,.49-1.75l0,0a3.19,3.19,0,0,1,5.41.16A3.21,3.21,0,0,1,244.25,149Z" transform="translate(-153.93 -135.58)"/><circle class="cls-4" cx="72.37" cy="64.35" r="19.34"/><path class="cls-5" d="M176.26,239.16a9.46,9.46,0,1,1,9.45-9.45A9.46,9.46,0,0,1,176.26,239.16Zm0-17.89a8.44,8.44,0,1,0,8.43,8.44A8.45,8.45,0,0,0,176.26,221.27Z" transform="translate(-153.93 -135.58)"/><path class="cls-5" d="M183.46,150.17a7.29,7.29,0,0,1-6.1-11.26,7.29,7.29,0,0,1,13.25,2.45,7.27,7.27,0,0,1-1,5.49,7.3,7.3,0,0,1-6.13,3.32Zm0-13.57a6.58,6.58,0,0,0-1.32.14,6.23,6.23,0,1,0,1.32-.14Z" transform="translate(-153.93 -135.58)"/><path class="cls-2" d="M229.86,213.75a13.51,13.51,0,0,1-5.19-1,13.17,13.17,0,0,1-4.2-2.72,12.8,12.8,0,0,1-2.8-4,12.06,12.06,0,0,1-1-4.93,11.69,11.69,0,0,1,.46-3.3,12,12,0,0,1,1.31-3,12.53,12.53,0,0,1,2.05-2.5,13.22,13.22,0,0,1,2.67-1.94,14.39,14.39,0,0,1,10.28-1.24,14,14,0,0,1,3.18,1.24,13,13,0,0,1,4.72,4.44,11.8,11.8,0,0,1,1.78,6.27,12.15,12.15,0,0,1-1.78,6.38A13.12,13.12,0,0,1,236.6,212a13.66,13.66,0,0,1-3.18,1.28A13.84,13.84,0,0,1,229.86,213.75Zm0-1.19a7.57,7.57,0,0,0,3.65-.86,7.78,7.78,0,0,0,2.66-2.39,11.35,11.35,0,0,0,1.64-3.64,18.33,18.33,0,0,0,.55-4.59,17.93,17.93,0,0,0-.55-4.54,10.85,10.85,0,0,0-1.64-3.55,7.64,7.64,0,0,0-2.66-2.31,8.6,8.6,0,0,0-7.33,0,7.53,7.53,0,0,0-2.65,2.31,10.63,10.63,0,0,0-1.62,3.55,17.94,17.94,0,0,0-.54,4.54,18.35,18.35,0,0,0,.54,4.59,11.11,11.11,0,0,0,1.62,3.64,7.36,7.36,0,0,0,6.33,3.25Z" transform="translate(-153.93 -135.58)"/><path class="cls-2" d="M248.16,189.23h4v15.56a7.87,7.87,0,0,0,.52,2.88,7,7,0,0,0,3.86,4,8.36,8.36,0,0,0,6.17,0,6.89,6.89,0,0,0,3.82-4,7.87,7.87,0,0,0,.52-2.88V189.23h1.77v15.56a10,10,0,0,1-.6,3.47,7.34,7.34,0,0,1-1.87,2.84,9,9,0,0,1-3.26,1.94,14.31,14.31,0,0,1-4.77.71A12.57,12.57,0,0,1,254,213a9.42,9.42,0,0,1-3.2-1.94,8.19,8.19,0,0,1-2-2.89,9.62,9.62,0,0,1-.65-3.53Z" transform="translate(-153.93 -135.58)"/><path class="cls-2" d="M275,189.23h8.32a13.87,13.87,0,0,1,3.78.46,7.94,7.94,0,0,1,2.71,1.29,5.32,5.32,0,0,1,1.63,2,5.65,5.65,0,0,1,.55,2.5,5.25,5.25,0,0,1-.42,2.1,5.76,5.76,0,0,1-1.19,1.76,7.07,7.07,0,0,1-1.86,1.35,10.21,10.21,0,0,1-2.38.9l8.73,11.62h-4.68l-8.34-11.26H279v11.26h-4Zm4,11.49h2.33a8.3,8.3,0,0,0,2.5-.36,6.24,6.24,0,0,0,2-1,4.57,4.57,0,0,0,1.78-3.72,5.29,5.29,0,0,0-.37-2,4.43,4.43,0,0,0-1.05-1.55,4.81,4.81,0,0,0-1.61-1,5.59,5.59,0,0,0-2-.36H279Z" transform="translate(-153.93 -135.58)"/><path class="cls-2" d="M313.54,212.24a6.56,6.56,0,0,0,1.76-.25,4.91,4.91,0,0,0,1.55-.72,3.78,3.78,0,0,0,1.11-1.18,3.14,3.14,0,0,0,.41-1.62,3.49,3.49,0,0,0-.57-2,6.86,6.86,0,0,0-1.49-1.57,16,16,0,0,0-2.11-1.35c-.78-.42-1.59-.84-2.41-1.26s-1.62-.87-2.41-1.33a12.1,12.1,0,0,1-2.11-1.55,7.41,7.41,0,0,1-1.49-1.92,5,5,0,0,1-.57-2.43,6.39,6.39,0,0,1,.52-2.55,5.54,5.54,0,0,1,1.51-2,7.21,7.21,0,0,1,2.45-1.35,10.62,10.62,0,0,1,3.33-.48,11.32,11.32,0,0,1,3,.36,7.31,7.31,0,0,1,2.35,1.06,6.58,6.58,0,0,1,1.71,1.74,9.06,9.06,0,0,1,1.14,2.38l-2.06.94a9,9,0,0,0-.92-2,6.37,6.37,0,0,0-1.34-1.57,5.62,5.62,0,0,0-1.8-1,7.12,7.12,0,0,0-2.3-.35,5.73,5.73,0,0,0-2,.32,4.29,4.29,0,0,0-1.42.83,3.44,3.44,0,0,0-.85,1.15,3.38,3.38,0,0,0-.27,1.31,2.87,2.87,0,0,0,.57,1.73,7,7,0,0,0,1.54,1.48,18.88,18.88,0,0,0,2.17,1.35l2.49,1.32c.85.44,1.67.91,2.49,1.39a13.46,13.46,0,0,1,2.17,1.58,7.32,7.32,0,0,1,1.54,1.88,4.51,4.51,0,0,1,.58,2.29,6.72,6.72,0,0,1-.54,2.68,6.1,6.1,0,0,1-1.63,2.19,8,8,0,0,1-2.69,1.47,13.2,13.2,0,0,1-6.84.17,8.09,8.09,0,0,1-2.39-1.11,7.26,7.26,0,0,1-1.78-1.76,9.5,9.5,0,0,1-1.21-2.38l2.15-.88a7.67,7.67,0,0,0,1,2.09,6.72,6.72,0,0,0,1.49,1.56,6.56,6.56,0,0,0,1.89,1A7,7,0,0,0,313.54,212.24Z" transform="translate(-153.93 -135.58)"/><path class="cls-2" d="M339.61,213.75a13.56,13.56,0,0,1-5.2-1,13,13,0,0,1-4.19-2.72,12.64,12.64,0,0,1-2.8-4,11.9,11.9,0,0,1-1-4.93,11.92,11.92,0,0,1,1.77-6.27,11.87,11.87,0,0,1,2.05-2.5,13.44,13.44,0,0,1,2.66-1.94,14.23,14.23,0,0,1,13.46,0,12.88,12.88,0,0,1,2.66,1.94,12.58,12.58,0,0,1,2.06,2.5,11.8,11.8,0,0,1,1.78,6.27,12.15,12.15,0,0,1-1.78,6.38A12.71,12.71,0,0,1,349,210a13.1,13.1,0,0,1-2.66,2,13.58,13.58,0,0,1-3.17,1.28A13.89,13.89,0,0,1,339.61,213.75Zm0-1.19a7.56,7.56,0,0,0,3.64-.86,7.78,7.78,0,0,0,2.66-2.39,11.14,11.14,0,0,0,1.64-3.64,17.88,17.88,0,0,0,.55-4.59,17.49,17.49,0,0,0-.55-4.54,10.65,10.65,0,0,0-1.64-3.55,7.64,7.64,0,0,0-2.66-2.31,8.58,8.58,0,0,0-7.32,0,7.56,7.56,0,0,0-2.66,2.31,10.63,10.63,0,0,0-1.62,3.55,17.94,17.94,0,0,0-.54,4.54,18.35,18.35,0,0,0,.54,4.59,11.11,11.11,0,0,0,1.62,3.64,7.69,7.69,0,0,0,2.66,2.39A7.61,7.61,0,0,0,339.61,212.56Z" transform="translate(-153.93 -135.58)"/><path class="cls-2" d="M358.26,189.23h4v22.41h12.08v1.55H358.26Z" transform="translate(-153.93 -135.58)"/><path class="cls-2" d="M387.34,188.69l11.28,24.5h-4.1l-3.65-8H380.58l-3.78,8h-2l11.55-24.5Zm-6,15h8.83l-4.35-9.49Z" transform="translate(-153.93 -135.58)"/><path class="cls-2" d="M401.94,189.23h8.32a13.87,13.87,0,0,1,3.78.46,8,8,0,0,1,2.71,1.29,5.42,5.42,0,0,1,1.63,2,5.65,5.65,0,0,1,.55,2.5,5.25,5.25,0,0,1-.42,2.1,5.76,5.76,0,0,1-1.19,1.76,7.41,7.41,0,0,1-1.86,1.35,10.38,10.38,0,0,1-2.38.9l8.73,11.62h-4.69l-8.33-11.26H406v11.26h-4Zm4,11.49h2.33a8.37,8.37,0,0,0,2.51-.36,6.24,6.24,0,0,0,2-1,4.57,4.57,0,0,0,1.78-3.72,5.29,5.29,0,0,0-.37-2,4.43,4.43,0,0,0-1-1.55,4.92,4.92,0,0,0-1.61-1,5.59,5.59,0,0,0-2-.36H406Z" transform="translate(-153.93 -135.58)"/><path class="cls-2" d="M257.83,235.12a2.63,2.63,0,0,0,.86-.14,2.35,2.35,0,0,0,.68-.38,1.68,1.68,0,0,0,.45-.55,1.46,1.46,0,0,0,.15-.64,1.58,1.58,0,0,0-.26-.92,2.62,2.62,0,0,0-.7-.71,5.84,5.84,0,0,0-1-.57l-1.13-.54c-.38-.18-.76-.38-1.13-.59a4.51,4.51,0,0,1-1-.72,3.24,3.24,0,0,1-.71-1,3,3,0,0,1-.26-1.28,2.9,2.9,0,0,1,.29-1.28,3.14,3.14,0,0,1,.82-1,4,4,0,0,1,1.25-.67,5,5,0,0,1,1.58-.24,7.06,7.06,0,0,1,1.07.08,3.47,3.47,0,0,1,1,.3,4.17,4.17,0,0,1,1,.65,9.4,9.4,0,0,1,1,1.1l-.85.76a4.87,4.87,0,0,0-1.46-1.6,3.1,3.1,0,0,0-1.72-.52,3.16,3.16,0,0,0-.9.12,2.05,2.05,0,0,0-.7.32,1.61,1.61,0,0,0-.45.49,1.19,1.19,0,0,0-.17.6,1.5,1.5,0,0,0,.29.91,3.41,3.41,0,0,0,.76.69,6.84,6.84,0,0,0,1.08.57l1.23.53c.42.18.83.38,1.24.59a6,6,0,0,1,1.08.73,3.5,3.5,0,0,1,.76.95,2.7,2.7,0,0,1,.28,1.27,3.32,3.32,0,0,1-.27,1.37,3.12,3.12,0,0,1-.81,1.11,4.12,4.12,0,0,1-1.38.74,6.22,6.22,0,0,1-1.94.27,7.4,7.4,0,0,1-1-.08,4.39,4.39,0,0,1-1.08-.31,4.61,4.61,0,0,1-1.09-.65,5.89,5.89,0,0,1-1.06-1.1l.94-.84a9,9,0,0,0,.8,1,4,4,0,0,0,.78.68,3,3,0,0,0,.83.39A3.36,3.36,0,0,0,257.83,235.12Z" transform="translate(-153.93 -135.58)"/><path class="cls-2" d="M265.08,238.4l.3.15a3,3,0,0,0,.36.17,2.52,2.52,0,0,0,.44.15,2.73,2.73,0,0,0,.53,0,1.22,1.22,0,0,0,.68-.2,2.49,2.49,0,0,0,.57-.51,3.64,3.64,0,0,0,.47-.67c.13-.24.24-.46.33-.67l.78-1.74-5.9-11h2.61l4.44,8.36,3.65-8.36h1.23l-5.91,13.6a6.45,6.45,0,0,1-.85,1.47,5.24,5.24,0,0,1-1,1,4.24,4.24,0,0,1-1.12.61,3.42,3.42,0,0,1-1.12.19,2.66,2.66,0,0,1-.79-.12,2.14,2.14,0,0,1-.64-.33Z" transform="translate(-153.93 -135.58)"/><path class="cls-2" d="M281.32,235.12a2.57,2.57,0,0,0,.85-.14,2.28,2.28,0,0,0,.69-.38,1.82,1.82,0,0,0,.45-.55,1.46,1.46,0,0,0,.15-.64,1.65,1.65,0,0,0-.26-.92,2.62,2.62,0,0,0-.7-.71,5.84,5.84,0,0,0-1-.57l-1.13-.54c-.39-.18-.76-.38-1.13-.59a4.84,4.84,0,0,1-1-.72,3.39,3.39,0,0,1-.7-1,2.84,2.84,0,0,1-.27-1.28,2.77,2.77,0,0,1,.3-1.28,3.14,3.14,0,0,1,.82-1,3.93,3.93,0,0,1,1.25-.67,5,5,0,0,1,1.58-.24,7.16,7.16,0,0,1,1.07.08,3.57,3.57,0,0,1,1,.3,3.92,3.92,0,0,1,.95.65,9.4,9.4,0,0,1,1,1.1l-.85.76a4.87,4.87,0,0,0-1.46-1.6,3.13,3.13,0,0,0-1.73-.52,3.16,3.16,0,0,0-.9.12,2,2,0,0,0-.69.32,1.64,1.64,0,0,0-.46.49,1.28,1.28,0,0,0-.16.6,1.5,1.5,0,0,0,.29.91,3.2,3.2,0,0,0,.76.69,6.84,6.84,0,0,0,1.08.57l1.23.53c.42.18.83.38,1.23.59a5.67,5.67,0,0,1,1.08.73,3.16,3.16,0,0,1,.76.95,2.59,2.59,0,0,1,.29,1.27,3.49,3.49,0,0,1-.27,1.37,3,3,0,0,1-.82,1.11,4,4,0,0,1-1.37.74,6.27,6.27,0,0,1-1.94.27,7.65,7.65,0,0,1-1.05-.08,4.39,4.39,0,0,1-1.08-.31,4.77,4.77,0,0,1-1.08-.65,5.59,5.59,0,0,1-1.06-1.1l.93-.84a9,9,0,0,0,.81,1,3.73,3.73,0,0,0,.78.68,2.85,2.85,0,0,0,.83.39A3.31,3.31,0,0,0,281.32,235.12Z" transform="translate(-153.93 -135.58)"/><path class="cls-2" d="M291.4,220.17h.66v3.93h2.57v1h-2.57v8.14a1.33,1.33,0,0,0,.09.49,1.56,1.56,0,0,0,.26.39,1.16,1.16,0,0,0,.89.36,1.29,1.29,0,0,0,.7-.19,2.49,2.49,0,0,0,.55-.47l.58.38a3.34,3.34,0,0,1-3.11,1.73,2.38,2.38,0,0,1-1-.2,1.94,1.94,0,0,1-.71-.55,2.49,2.49,0,0,1-.41-.85,4.11,4.11,0,0,1-.14-1.09v-8.14h-2v-.43l2-.56v-3.28Z" transform="translate(-153.93 -135.58)"/><path class="cls-2" d="M303.05,235.92a5.62,5.62,0,0,1-2.21-.44,5.73,5.73,0,0,1-1.8-1.2,5.53,5.53,0,0,1-1.22-1.78,5.3,5.3,0,0,1-.44-2.17,7.87,7.87,0,0,1,.4-2.57,6.15,6.15,0,0,1,1.15-2,5.35,5.35,0,0,1,4.13-1.83,5.25,5.25,0,0,1,2.08.4,5.43,5.43,0,0,1,1.63,1.07,4.75,4.75,0,0,1,1.06,1.56,4.63,4.63,0,0,1,.38,1.84h-8.62a7.4,7.4,0,0,0,.3,2.15,5.41,5.41,0,0,0,.84,1.72,4,4,0,0,0,1.29,1.13,3.38,3.38,0,0,0,1.64.41,4.34,4.34,0,0,0,1.43-.24,5.45,5.45,0,0,0,1.25-.64,4.58,4.58,0,0,0,1-.91,3.16,3.16,0,0,0,.56-1l.66.3a5.24,5.24,0,0,1-.8,1.67,6.67,6.67,0,0,1-1.29,1.36,6.45,6.45,0,0,1-1.61.92A4.75,4.75,0,0,1,303.05,235.92Zm2.28-8.09a3.27,3.27,0,0,0-.23-1.22,3,3,0,0,0-1.59-1.63,2.84,2.84,0,0,0-1.17-.23,2.18,2.18,0,0,0-1,.23,2.61,2.61,0,0,0-.84.64,3.48,3.48,0,0,0-.62,1,3.76,3.76,0,0,0-.29,1.22Z" transform="translate(-153.93 -135.58)"/><path class="cls-2" d="M313.43,223.89h.65v2.39a9.85,9.85,0,0,1,1-.91,9,9,0,0,1,1.14-.76,5.87,5.87,0,0,1,1.18-.53,3.5,3.5,0,0,1,1.11-.19,3.21,3.21,0,0,1,1,.18,3.6,3.6,0,0,1,1,.51,3.51,3.51,0,0,1,.77.77,2.58,2.58,0,0,1,.42,1,3.67,3.67,0,0,1,.79-1,5.48,5.48,0,0,1,1.11-.77,6.57,6.57,0,0,1,1.29-.52,4.87,4.87,0,0,1,1.34-.19,2.59,2.59,0,0,1,1.23.29,3.23,3.23,0,0,1,1,.78,3.57,3.57,0,0,1,.68,1.15,3.86,3.86,0,0,1,.25,1.4v8.16H327.1v-7.84a2.82,2.82,0,0,0-.16-.92,2.73,2.73,0,0,0-.45-.76,2.2,2.2,0,0,0-.66-.52,1.71,1.71,0,0,0-.8-.19,3.7,3.7,0,0,0-1,.13,4.55,4.55,0,0,0-.93.35,4.44,4.44,0,0,0-.8.53,2.76,2.76,0,0,0-.57.63v8.59h-2.3v-7.84a2.39,2.39,0,0,0-.17-.92,2.51,2.51,0,0,0-.45-.76,2.12,2.12,0,0,0-.67-.52,1.71,1.71,0,0,0-.8-.19,3.33,3.33,0,0,0-.91.13,5.38,5.38,0,0,0-.91.36,4.69,4.69,0,0,0-.83.53,3.8,3.8,0,0,0-.64.62v8.59h-2.3V224.53Z" transform="translate(-153.93 -135.58)"/><path class="cls-6" d="M260,184.73a2.69,2.69,0,0,1-1,2.11,2.71,2.71,0,0,1-.77-4.8A2.93,2.93,0,0,1,260,184.73Z" transform="translate(-153.93 -135.58)"/><path class="cls-6" d="M242.87,151.66a3.1,3.1,0,0,1-1.79.57,3.21,3.21,0,0,1-3.21-3.21,3.47,3.47,0,0,1,.49-1.75l0,0A5,5,0,0,1,242.87,151.66Z" transform="translate(-153.93 -135.58)"/><path class="cls-6" d="M215.05,172.53a2.63,2.63,0,0,1-2.64,2.31,2.75,2.75,0,0,1-1.87-.73,2.92,2.92,0,0,1,2.81-2.15A2.64,2.64,0,0,1,215.05,172.53Z" transform="translate(-153.93 -135.58)"/><path class="cls-6" d="M228.31,225.72a2.89,2.89,0,0,1-4.84.28,1.85,1.85,0,0,1,.29-.93,2.55,2.55,0,0,1,3.41-.94A2.38,2.38,0,0,1,228.31,225.72Z" transform="translate(-153.93 -135.58)"/><path class="cls-6" d="M196.47,198.51a5.71,5.71,0,0,1-3.95,5.41,6.21,6.21,0,0,1,1-10.33A5.59,5.59,0,0,1,196.47,198.51Z" transform="translate(-153.93 -135.58)"/><path class="cls-6" d="M181.75,229.7a4.65,4.65,0,0,1-.41,2,2.28,2.28,0,0,1-.73.08,6.26,6.26,0,0,1-6.26-6.26,7.93,7.93,0,0,1,.08-1,5.45,5.45,0,0,1,7.32,5.16Z" transform="translate(-153.93 -135.58)"/><path class="cls-6" d="M187.64,142.88a4.17,4.17,0,0,1-4.14,4.19,4,4,0,0,1-2.81-1.1,6.21,6.21,0,0,1,6.14-5.16.57.57,0,0,1,.25,0A4,4,0,0,1,187.64,142.88Z" transform="translate(-153.93 -135.58)"/><path class="cls-6" d="M160.8,184.32a3.44,3.44,0,0,1-3.41,3.42.75.75,0,0,1-.29,0,6.1,6.1,0,0,1-.77-3,6.2,6.2,0,0,1,1.3-3.79A3.39,3.39,0,0,1,160.8,184.32Z" transform="translate(-153.93 -135.58)"/></svg>